<svg id="Layer" xmlns="http://www.w3.org/2000/svg" viewBox="0 0 384 384">
  <defs>
    <style>
      .cls-1 {
        fill: #fff;
      }
    </style>
  </defs>
  <title>arrow_expand</title>
  <path class="cls-1" d="M0,64v64a16,16,0,0,0,32,0V64A32.09,32.09,0,0,1,64,32H320a32.09,32.09,0,0,1,32,32V320a32.09,32.09,0,0,1-32,32H64a32.09,32.09,0,0,1-32-32V256a16,16,0,0,0-32,0v64a64.06,64.06,0,0,0,64,64H320a64.06,64.06,0,0,0,64-64V64A64.06,64.06,0,0,0,320,0H64A64.06,64.06,0,0,0,0,64Z" transform="translate(0 0)"/>
  <path class="cls-1" d="M80,208H265.4l-36.7,36.7a16,16,0,1,0,22.6,22.6l64-64a16.06,16.06,0,0,0,0-22.6l-64-64a16,16,0,1,0-22.6,22.6L265.4,176H80a16,16,0,0,0,0,32Z" transform="translate(0 0)"/>
</svg>
