<svg id="Layer_1" data-name="Layer 1" xmlns="http://www.w3.org/2000/svg" viewBox="0 0 37.94 37.93">
  <defs>
    <style>
      .cls-1 {
        fill: #fff;
      }
    </style>
  </defs>
  <title>ico-commission</title>
  <g>
    <path class="cls-1" d="M7.11,41.7h6.66L27,44a1.11,1.11,0,0,0,.83-.19h0l15.66-11.5a1.1,1.1,0,0,0,.24-1.54h0a5.67,5.67,0,0,0-7.68-1.43l-4,2.62a3.33,3.33,0,0,0-2.69-1.36H25.84c-.61,0-.87-.45-1.26-.74a7.81,7.81,0,0,0-10.29,0l-.84.74H7.11A1.11,1.11,0,0,0,6,31.68v8.91A1.11,1.11,0,0,0,7.11,41.7Zm1.12-8.91h5.64a1.13,1.13,0,0,0,.73-.27l1.16-1a5.58,5.58,0,0,1,7.35,0,3.91,3.91,0,0,0,2.73,1.29h3.61A1.12,1.12,0,1,1,29.66,35H20.55a1.12,1.12,0,0,0-.21,2.23h9.11a3.35,3.35,0,0,0,3.33-3.07l4.56-3a3.44,3.44,0,0,1,3.85.07L27,41.71c-13.67-2.35-12.9-2.24-13.08-2.24H8.23Z" transform="translate(-6 -6.09)"/>
    <path class="cls-1" d="M35,16.09a10,10,0,1,0-10,10A10,10,0,0,0,35,16.09Zm-2.23,0a7.82,7.82,0,0,1-6.68,7.72v-2A3.34,3.34,0,0,0,25,15.31a1.12,1.12,0,1,1,1.11-1.13h0a1.12,1.12,0,0,0,2.23.21.74.74,0,0,0,0-.21,3.36,3.36,0,0,0-2.22-3.14V8.31a7.85,7.85,0,0,1,6.67,7.78Zm-15.58,0a7.85,7.85,0,0,1,6.68-7.78V11A3.34,3.34,0,0,0,25,17.53a1.12,1.12,0,1,1-1.12,1.12,1.11,1.11,0,0,0-2.22,0h0A3.34,3.34,0,0,0,23.9,21.8v2a7.82,7.82,0,0,1-6.69-7.71Z" transform="translate(-6 -6.09)"/>
  </g>
</svg>
