<svg id="Layer_1" data-name="Layer 1" xmlns="http://www.w3.org/2000/svg" viewBox="0 0 28.27 37.81">
  <defs>
    <style>
      .cls-1 {
        fill: #fff;
      }
    </style>
  </defs>
  <title>ico-policy-count</title>
  <path class="cls-1" d="M21.34,35a.89.89,0,0,1-.89.89H17.14a.89.89,0,1,1,0-1.78H20.5A.88.88,0,0,1,21.34,35ZM27,18.24h3.38a.9.9,0,0,0,.79-1,.91.91,0,0,0-.79-.79H27a.89.89,0,0,0-.18,1.77A.54.54,0,0,0,27,18.24ZM27,22h3.38a.9.9,0,0,0,.79-1,.91.91,0,0,0-.79-.79H27A.89.89,0,0,0,26.85,22,.54.54,0,0,0,27,22ZM23.14,24h-6a.89.89,0,1,0,0,1.78h6a.89.89,0,0,0,0-1.78Zm0,6.45h-6a.89.89,0,1,0,0,1.78h6a.89.89,0,0,0,0-1.78Zm16,1.37v5.79A6.33,6.33,0,0,1,28.5,42.22H11.76a.89.89,0,0,1-.9-.89V7a.89.89,0,0,1,.9-.89H29.64a.9.9,0,0,1,.62.25h0l6.1,6.09h0a1.09,1.09,0,0,1,.24.45h0V30.63c.61.07,1.2.16,1.79.27A.9.9,0,0,1,39.14,31.77ZM30.52,12.18h3.07L30.52,9.09ZM26.47,37.56V31.77a.87.87,0,0,1,.71-.87,32.09,32.09,0,0,1,5.62-.5c.68,0,1.36,0,2,.06V14h-5.2a.89.89,0,0,1-.89-.89V7.87H12.65V40.45H27.14A6.26,6.26,0,0,1,26.47,37.56Zm10.89-5a31,31,0,0,0-9.12,0v5a4.56,4.56,0,1,0,9.12,0Zm-5.45,2.2V36.3H30.38a.89.89,0,1,0,0,1.78h1.54v1.54a.89.89,0,1,0,1.77,0V38.09h1.55a.89.89,0,1,0,0-1.78H33.68V34.72a.88.88,0,0,0-.88-.89.89.89,0,0,0-.9.89Zm-1.5-9a.89.89,0,0,0,0-1.78H27a.89.89,0,0,0,0,1.78Zm-7.27-5.53h-6A.89.89,0,1,0,17,22a.6.6,0,0,0,.19,0h6a.89.89,0,0,0,.18-1.77Zm0-3.76h-6A.89.89,0,0,0,17,18.24a.6.6,0,0,0,.19,0h6a.89.89,0,0,0,.18-1.77Z" transform="translate(-10.86 -6.09)"/>
</svg>
