<svg id="Layer_1" data-name="Layer 1" xmlns="http://www.w3.org/2000/svg" viewBox="0 0 24 37.27">
  <defs>
    <style>
      .cls-1 {
        fill: #fff;
      }
    </style>
  </defs>
  <title>ico-loss-ratio</title>
  <g>
    <path class="cls-1" d="M37,17A12,12,0,1,0,21.73,28.55v5H18.45a1.09,1.09,0,0,0-.77,1.86L24.23,42a1.1,1.1,0,0,0,1.54,0l6.55-6.55a1.09,1.09,0,0,0,.23-1.19,1.08,1.08,0,0,0-1-.67H28.27v-5A12,12,0,0,0,37,17ZM15.18,17A9.82,9.82,0,1,1,25,26.82h0A9.84,9.84,0,0,1,15.18,17Zm12,18.69h1.73L25,39.6l-3.91-3.91h1.73a1.09,1.09,0,0,0,1.09-1.09h0V29c.36,0,.72.05,1.09.05A7.88,7.88,0,0,0,26.09,29v5.6a1.09,1.09,0,0,0,1.09,1.09Z" transform="translate(-13 -5)"/>
    <path class="cls-1" d="M22.24,21.76V20.48a2.63,2.63,0,0,0-.87-5.11.88.88,0,1,1,.88-.88h0a.88.88,0,1,0,1.75.19.61.61,0,0,0,0-.19A2.63,2.63,0,0,0,22.24,12v-.77a.88.88,0,0,0-1.76,0V12a2.63,2.63,0,0,0,.89,5.11.88.88,0,1,1-.88.88h0a.88.88,0,0,0-1.75-.19.61.61,0,0,0,0,.19,2.65,2.65,0,0,0,1.74,2.48v1.28a.88.88,0,0,0,1.76,0Z" transform="translate(-13 -5)"/>
  </g>
  <path class="cls-1" d="M27.77,13.23a1.87,1.87,0,0,1,1.18.42,1.62,1.62,0,0,1,.5,2.09,2.11,2.11,0,0,1-.52.63,2.36,2.36,0,0,1-1.49.49,2,2,0,0,1-1.4-.5,1.59,1.59,0,0,1-.48-1.18,1.68,1.68,0,0,1,.59-1.34,2.29,2.29,0,0,1,.73-.41A2.68,2.68,0,0,1,27.77,13.23Zm-.36.81a.27.27,0,0,0-.22.1.41.41,0,0,0-.09.28,2.79,2.79,0,0,0,.22,1.06,1.08,1.08,0,0,0,.19.35.32.32,0,0,0,.23.09c.2,0,.29-.13.29-.4a2.75,2.75,0,0,0-.23-1.13c-.1-.23-.22-.39-.39-.39Zm1.26,3.79,1.58-2.65c.41-.73.69-1.24.84-1.54a1.07,1.07,0,0,1,.25-.35.54.54,0,0,1,.35-.09c.33,0,.49.08.49.24a2.27,2.27,0,0,1-.4.77c-.2.29-.49.74-.86,1.36l-1.59,2.71L28.4,20a1.62,1.62,0,0,1-.25.39.42.42,0,0,1-.28.1.92.92,0,0,1-.43-.08c-.12-.05-.17-.12-.17-.2a.47.47,0,0,1,.11-.26c.1-.14.38-.59.86-1.33Zm3.32-1a1.88,1.88,0,0,1,1.18.41,1.56,1.56,0,0,1,.5,2.05,2.11,2.11,0,0,1-.52.63,2.35,2.35,0,0,1-1.49.5,2,2,0,0,1-1.4-.51,1.55,1.55,0,0,1-.48-1.17,1.7,1.7,0,0,1,.59-1.35A2.24,2.24,0,0,1,31.1,17a2.73,2.73,0,0,1,.9-.14Zm-.36.8a.27.27,0,0,0-.22.11.44.44,0,0,0-.09.27,2.79,2.79,0,0,0,.22,1.06.92.92,0,0,0,.19.35.29.29,0,0,0,.23.1c.2,0,.29-.14.29-.4A2.69,2.69,0,0,0,32,18c-.09-.22-.21-.33-.37-.34Z" transform="translate(-13 -5)"/>
</svg>
