<svg id="Layer_1" data-name="Layer 1" xmlns="http://www.w3.org/2000/svg" viewBox="0 0 36.34 36.34">
  <defs>
    <style>
      .cls-1 {
        fill: #fff;
      }
    </style>
  </defs>
  <title>ico-client-type</title>
  <g>
    <path class="cls-1" d="M41.47,25.05a3.19,3.19,0,0,0-4.39.27L34,28.68a3.21,3.21,0,0,0-3.06-2.25H25.31c-.42,0-.57-.16-1.3-.73a7.47,7.47,0,0,0-9.82,0l-2,1.8a3.19,3.19,0,0,0-2.93,0L6.85,28.67a1.07,1.07,0,0,0-.47,1.43l6.38,12.78a1.07,1.07,0,0,0,1.43.48l2.36-1.18a3.2,3.2,0,0,0,1.76-3H30.89a7.51,7.51,0,0,0,6-3L42,29.41A3.19,3.19,0,0,0,41.47,25.05ZM15.6,40.27l-1.41.7L8.76,30.1l1.4-.7a1.07,1.07,0,0,1,1.43.48l4.48,9A1.06,1.06,0,0,1,15.6,40.27ZM40.27,28.13,35.15,35a5.36,5.36,0,0,1-4.26,2.13H17.57l-4-8,2-1.77a5.33,5.33,0,0,1,7,0,3.79,3.79,0,0,0,2.68,1.23h5.58a1.07,1.07,0,1,1,0,2.13H25.46a1.07,1.07,0,1,0,0,2.13h6.15a3.22,3.22,0,0,0,2.34-1l4.68-5a1.07,1.07,0,0,1,1.64,1.36Z" transform="translate(-6.26 -7.13)"/>
    <path class="cls-1" d="M28.65,14.39a4.24,4.24,0,0,0,1.18-2.94,4.31,4.31,0,0,0-4.26-4.32,4.38,4.38,0,0,0-4.33,4.32,4.16,4.16,0,0,0,1.22,3A6.49,6.49,0,0,0,19.11,20v1.07a1.06,1.06,0,0,0,1.07,1.06H30.89A1.06,1.06,0,0,0,32,21.11V20A6.5,6.5,0,0,0,28.65,14.39ZM25.57,9.25a2.19,2.19,0,0,1,2.13,2.2,2.13,2.13,0,0,1-2.13,2.13,2.19,2.19,0,0,1-2.2-2.13A2.26,2.26,0,0,1,25.57,9.25ZM21.24,20a4.39,4.39,0,0,1,4.33-4.33A4.3,4.3,0,0,1,29.83,20Z" transform="translate(-6.26 -7.13)"/>
  </g>
</svg>
