<svg id="Layer_1" data-name="Layer 1" xmlns="http://www.w3.org/2000/svg" viewBox="0 0 42.34 18.58">
  <defs>
    <style>
      .cls-1 {
        fill: #fff;
      }
    </style>
  </defs>
  <title>ico-os-amount</title>
  <path class="cls-1" d="M36.69,35H4.3a.55.55,0,0,1-.55-.55V25.08a.57.57,0,0,1,.11-.28l.08-.09h0l0,0,10.29-8.17a.54.54,0,0,1,.34-.12h31a.39.39,0,0,1,.18.06h0a.6.6,0,0,1,.13.09.4.4,0,0,1,.1.15.5.5,0,0,1,0,.13h0a.45.45,0,0,1,0,.11v2.52h0v2.32h0v2.34h0v2.15a.52.52,0,0,1-.18.4l-8.85,8.16h0a.57.57,0,0,1-.35.14Zm-10.4-1.1h9.85V32.71H26.29Zm-10.73,0H25.2V25.67H15.56Zm-10.71,0h9.61V32.71H4.85Zm32.39-1.34v.64L45,26v-.66Zm-11-.93h9.85V30.27H26.29Zm-21.44,0h9.61V30.27H4.85ZM37.24,30.2v.85L45,23.89V23Zm-11-1h9.85V27.92H26.29Zm-21.44,0h9.61V27.92H4.85Zm32.39-1.29v.83L45,21.55v-.83Zm-11-1.06h9.85V25.67H26.29Zm-21.44,0h9.61V25.67H4.85Zm32.39-1.46v1L45,19.23v-1Zm-10.1-.79h9.33l7.67-7.07H34.79l-1.08,1a1.78,1.78,0,0,1,.86,1,2,2,0,0,1-.82,2,8.32,8.32,0,0,1-5.25,1.89Zm-10.61,0h9l2.38-2.2h0l5.26-4.87H25.06l-2.15,1.78h0Zm-10.66,0h8.94l2-1.62a1.5,1.5,0,0,1-.73-.9c-.23-1,.84-1.8,1.19-2.07a8.15,8.15,0,0,1,5.13-1.68l1-.8H14.78Zm15-5.05a7.09,7.09,0,0,0-3,1.33c-.68.52-.82.84-.79.94s.31.29.59.38Zm11.93-.22-3,2.78A6.21,6.21,0,0,0,33,20.64c.38-.36.57-.69.52-.87S33.14,19.41,32.84,19.3Z" transform="translate(-3.75 -16.4)"/>
</svg>
