<svg id="Layer_1" data-name="Layer 1" xmlns="http://www.w3.org/2000/svg" viewBox="0 0 39.15 41.57">
  <defs>
    <style>
      .cls-1 {
        fill: #fff;
      }
    </style>
  </defs>
  <title>ico_admin</title>
  <g>
    <path class="cls-1" d="M27.09,13C27,12,26,12.14,25,12.14A8.6,8.6,0,0,1,27.09,13Z" transform="translate(-5.94 -4)"/>
    <path class="cls-1" d="M16.52,10.48A4.09,4.09,0,0,0,14,17.78a8.85,8.85,0,0,1,5.86-5.59A4.09,4.09,0,0,0,16.52,10.48Z" transform="translate(-5.94 -4)"/>
    <path class="cls-1" d="M8.59,17a8.26,8.26,0,0,0,.6,1.44L7.93,19.72a.87.87,0,0,0,0,1.23l2.22,2.22a.86.86,0,0,0,.61.25.9.9,0,0,0,.62-.25l1.26-1.26a6.07,6.07,0,0,0,.59.24v0a13.06,13.06,0,0,1,.33-2.92,5.48,5.48,0,1,1,7.72-7.3,9.88,9.88,0,0,1,3.1.09,8,8,0,0,0-.53-1.28l1.26-1.27a.87.87,0,0,0,0-1.22L22.89,6a.89.89,0,0,0-.62-.26.87.87,0,0,0-.61.26L20.4,7.25A8.26,8.26,0,0,0,19,6.65V4.87A.87.87,0,0,0,18.09,4H15a.87.87,0,0,0-.87.87V6.65a8.26,8.26,0,0,0-1.44.6L11.38,6a.89.89,0,0,0-.62-.26.87.87,0,0,0-.61.26L7.93,8.21a.83.83,0,0,0-.26.61.87.87,0,0,0,.26.62L9.19,10.7a8,8,0,0,0-.6,1.44H6.81a.87.87,0,0,0-.87.87v3.14a.87.87,0,0,0,.87.87Z" transform="translate(-5.94 -4)"/>
    <path class="cls-1" d="M35.82,33.84a4.47,4.47,0,0,0-2.14-8.4,4.41,4.41,0,0,0-2.36.69,16.59,16.59,0,0,1-1.91,4.57A13.43,13.43,0,0,1,35.82,33.84Z" transform="translate(-5.94 -4)"/>
    <path class="cls-1" d="M45.09,28.23a.94.94,0,0,0-.93-.94H42.23a8.82,8.82,0,0,0-.64-1.56L43,24.37a.94.94,0,0,0,0-1.32l-2.4-2.4a.94.94,0,0,0-1.32,0L37.86,22a8.43,8.43,0,0,0-1.55-.64V19.44a.94.94,0,0,0-.94-.93H32a1,1,0,0,0-.59.22,12.67,12.67,0,0,1,.44,3.38,15.19,15.19,0,0,1-.17,2.32,5.66,5.66,0,0,1,2-.38,5.86,5.86,0,0,1,3.17,10.8,13.45,13.45,0,0,1,2.73,4.55.81.81,0,0,0,.31.06.93.93,0,0,0,.66-.27l2.4-2.4a.9.9,0,0,0,.27-.66.91.91,0,0,0-.27-.66l-1.36-1.36a8.82,8.82,0,0,0,.64-1.56h1.93a.92.92,0,0,0,.93-.93Z" transform="translate(-5.94 -4)"/>
    <path class="cls-1" d="M37.67,40.25a11.32,11.32,0,0,0-9.73-7.62,7.47,7.47,0,0,1-5.41,2.57,7.43,7.43,0,0,1-5.4-2.57,11.34,11.34,0,0,0-9.74,7.62l-.8,2.37a2.24,2.24,0,0,0,2.11,3H36.36a2.23,2.23,0,0,0,2.11-3Z" transform="translate(-5.94 -4)"/>
    <path class="cls-1" d="M15.32,22.11c0,5.31,3.23,11,7.21,11s7.22-5.69,7.22-11C29.75,11.11,15.32,11.09,15.32,22.11Z" transform="translate(-5.94 -4)"/>
  </g>
</svg>
