<svg id="Layer_1" data-name="Layer 1" xmlns="http://www.w3.org/2000/svg" viewBox="0 0 41.5 27.67">
  <defs>
    <style>
      .cls-1, .cls-2 {
        fill: #fff;
      }

      .cls-1 {
        opacity: 0.7;
      }
    </style>
  </defs>
  <title>ico_arrow_expand_new</title>
  <g>
    <path class="cls-1" d="M13.87,24.66a1.73,1.73,0,1,0-2.44-2.44L4.51,29.13h0l-.12.13,0,.06-.06.07s0,.05,0,.08a.25.25,0,0,0,0,.07.3.3,0,0,0,0,.08l0,.07a.24.24,0,0,0,0,.08l0,.08a.24.24,0,0,0,0,.08A.29.29,0,0,0,4,30s0,.06,0,.09,0,.05,0,.07a1.93,1.93,0,0,0,0,.34s0,.06,0,.08,0,.06,0,.09a.29.29,0,0,0,0,.09.31.31,0,0,0,0,.08l0,.08a.31.31,0,0,0,0,.08l0,.07a.3.3,0,0,0,0,.08.25.25,0,0,0,0,.07l0,.07.06.08,0,.06.12.13,6.92,6.91a1.73,1.73,0,0,0,2.44-2.44l-4-4h20a1.73,1.73,0,1,0,0-3.45h-20Z" transform="translate(-4 -11.33)"/>
    <path class="cls-2" d="M45,18.76h0l-6.91-6.92a1.73,1.73,0,0,0-2.45,0,1.74,1.74,0,0,0,0,2.45l4,4h-20a1.73,1.73,0,0,0,0,3.46h20l-4,4a1.73,1.73,0,0,0,2.45,2.45L45,21.2h0l.11-.12,0-.07.05-.07,0-.08,0-.07,0-.07a.3.3,0,0,0,0-.08l0-.08,0-.08a.31.31,0,0,1,0-.08.24.24,0,0,1,0-.08s0-.06,0-.09a.22.22,0,0,0,0-.08,1.93,1.93,0,0,0,0-.34.22.22,0,0,0,0-.08s0-.06,0-.09a850403793927.6,850403793927.6,0,0,0,0-.16l0-.08,0-.08a.3.3,0,0,0,0-.08l0-.08,0-.06a.56.56,0,0,0,0-.08L45.16,19l0-.07Z" transform="translate(-4 -11.33)"/>
  </g>
</svg>
