<svg id="Layer_1" data-name="Layer 1" xmlns="http://www.w3.org/2000/svg" viewBox="0 0 42.6 40.29">
  <defs>
    <style>
      .cls-1 {
        fill: #fff;
      }
    </style>
  </defs>
  <title>ico_refresh</title>
  <path class="cls-1" d="M46.51,34.27a1.66,1.66,0,0,0-2.08-1.06l-2.14.7A20.15,20.15,0,1,0,24.15,45.29a1.65,1.65,0,1,0,0-3.3,16.83,16.83,0,1,1,15.16-9.5l-.74-2.26a1.65,1.65,0,0,0-3.14,1l2,6A1.65,1.65,0,0,0,39,38.38a1.51,1.51,0,0,0,.51-.08l6-1.94A1.65,1.65,0,0,0,46.51,34.27Z" transform="translate(-4 -5)"/>
</svg>
