<svg id="Layer_1" data-name="Layer 1" xmlns="http://www.w3.org/2000/svg" viewBox="0 0 42 41.71">
  <defs>
    <style>
      .cls-1 {
        fill: #fff;
      }
    </style>
  </defs>
  <title>ico_expand</title>
  <g>
    <path class="cls-1" d="M45,4H35.58a1,1,0,0,0-1,1V7.64a1,1,0,0,0,1,1h2.51L30.52,16.2a1,1,0,0,0,0,1.4l1.88,1.87a1,1,0,0,0,1.4,0l7.57-7.56v2.51a1,1,0,0,0,1,1H45a1,1,0,0,0,1-1V5A1,1,0,0,0,45,4Z" transform="translate(-4 -4)"/>
    <path class="cls-1" d="M11.91,8.63h2.51a1,1,0,0,0,1-1V5a1,1,0,0,0-1-1H5A1,1,0,0,0,4,5v9.43a1,1,0,0,0,1,1H7.64a1,1,0,0,0,1-1V11.91l7.57,7.56a1,1,0,0,0,1.4,0l1.87-1.87a1,1,0,0,0,0-1.4Z" transform="translate(-4 -4)"/>
    <path class="cls-1" d="M17.6,30.23a1,1,0,0,0-1.4,0L8.63,37.8V35.28a1,1,0,0,0-1-1H5a1,1,0,0,0-1,1v9.43a1,1,0,0,0,1,1h9.43a1,1,0,0,0,1-1V42.07a1,1,0,0,0-1-1H11.91l7.56-7.56a1,1,0,0,0,0-1.41Z" transform="translate(-4 -4)"/>
    <path class="cls-1" d="M45,34.29H42.36a1,1,0,0,0-1,1V37.8L33.8,30.23a1,1,0,0,0-1.4,0L30.52,32.1a1,1,0,0,0,0,1.41l7.57,7.56H35.58a1,1,0,0,0-1,1v2.64a1,1,0,0,0,1,1H45a1,1,0,0,0,1-1V35.28A1,1,0,0,0,45,34.29Z" transform="translate(-4 -4)"/>
  </g>
</svg>
