<svg id="Layer_1" data-name="Layer 1" xmlns="http://www.w3.org/2000/svg" viewBox="0 0 47 34.89">
  <defs>
    <style>
      .cls-1 {
        fill: #fff;
      }
    </style>
  </defs>
  <title>ico_dashboard2</title>
  <g>
    <path class="cls-1" d="M26.32,32.68a1.92,1.92,0,0,0,0-3.84l-8.69-6.4,6.77,8.44A1.93,1.93,0,0,0,26.32,32.68Z" transform="translate(-2 -8)"/>
    <rect class="cls-1" x="13.92" y="30.35" width="19.17" height="4.55"/>
    <path class="cls-1" d="M42.12,14.88A23.5,23.5,0,0,0,2,31.5,23.31,23.31,0,0,0,4.94,42.89H9.33L12.54,41l-1.42-2.46L7,41A20.65,20.65,0,0,1,4.71,31.5c0-.6,0-1.2.08-1.79l4.92.87.5-2.8-5-.87a20.78,20.78,0,0,1,5.67-10.19l3.38,4,2.17-1.82L13,14.87a20.64,20.64,0,0,1,11-4.11v5.38h2.84V10.76a20.64,20.64,0,0,1,11,4.11l-3.4,4.05,2.17,1.82,3.38-4a20.78,20.78,0,0,1,5.67,10.19l-5,.87.5,2.8,4.92-.87c0,.59.08,1.19.08,1.79A20.65,20.65,0,0,1,44,41l-4.13-2.39L38.46,41l3.21,1.85h4.39a23.52,23.52,0,0,0-3.94-28Z" transform="translate(-2 -8)"/>
  </g>
</svg>
