<svg id="Layer_1" data-name="Layer 1" xmlns="http://www.w3.org/2000/svg" viewBox="0 0 41 41">
  <defs>
    <style>
      .cls-1 {
        fill: #fff;
      }
    </style>
  </defs>
  <title>ico_dashboard</title>
  <g>
    <path class="cls-1" d="M24.28,15.14c-.65,2-3.9,12.27-3.9,14.48a5.12,5.12,0,1,0,10.24,0c0-2.21-3.25-12.45-3.9-14.48A1.33,1.33,0,0,0,24.28,15.14Zm1.22,17a2.57,2.57,0,0,1-2.56-2.57c0-1,1.29-5.64,2.56-9.79,1.27,4.15,2.56,8.75,2.56,9.79A2.57,2.57,0,0,1,25.5,32.19Z" transform="translate(-5 -4)"/>
    <path class="cls-1" d="M25.5,4A20.5,20.5,0,1,0,46,24.5,20.53,20.53,0,0,0,25.5,4Zm-8,36.53a18.24,18.24,0,0,1,16,0,17.75,17.75,0,0,1-16,0ZM36,39a20.79,20.79,0,0,0-21,0A17.92,17.92,0,0,1,7.56,24.5h5.13V21.94H7.77a17.85,17.85,0,0,1,4.8-9.84l3,3,1.82-1.81-2.88-2.87a17.88,17.88,0,0,1,9.75-3.75v3.78h2.56V6.63a17.88,17.88,0,0,1,9.75,3.75l-2.88,2.87,1.82,1.81,3-3a17.85,17.85,0,0,1,4.8,9.84H38.31V24.5h5.13A17.92,17.92,0,0,1,36,39Z" transform="translate(-5 -4)"/>
  </g>
</svg>
