<svg id="Layer_1" data-name="Layer 1" xmlns="http://www.w3.org/2000/svg" viewBox="0 0 43 43">
  <defs>
    <style>
      .cls-1 {
        fill: #fff;
      }
    </style>
  </defs>
  <title>ico_whatsApp</title>
  <g id="_Group_" data-name="&lt;Group&gt;">
    <path id="_Path_" data-name="&lt;Path&gt;" class="cls-1" d="M35.82,27.71c-.09,0-3.22-1.59-3.78-1.79a2.22,2.22,0,0,0-.73-.16,1.22,1.22,0,0,0-1,.63c-.32.46-1.26,1.57-1.56,1.9,0,.05-.09.1-.12.1s-.51-.2-.66-.27a16.5,16.5,0,0,1-6.26-5.56.9.9,0,0,1-.06-.12c0-.05.13-.16.19-.22s.35-.39.53-.61l.25-.3a3.25,3.25,0,0,0,.51-.81l.07-.14a1.44,1.44,0,0,0,0-1.37c-.07-.15-1.4-3.35-1.54-3.68-.34-.81-.78-1.19-1.4-1.19h-.25a7.39,7.39,0,0,0-2.6.67,5.46,5.46,0,0,0-2,4.64A10,10,0,0,0,17.46,25l.09.13a20.49,20.49,0,0,0,8.76,7.6A14.17,14.17,0,0,0,31.6,34h0c.34,0,.62,0,.86,0l.16,0c1-.09,3.35-1.29,3.87-2.74a4.28,4.28,0,0,0,.25-2.86A2,2,0,0,0,35.82,27.71Z" transform="translate(-4 -3)"/>
    <path id="_Compound_Path_" data-name="&lt;Compound Path&gt;" class="cls-1" d="M25.88,3A21.07,21.07,0,0,0,4.76,24a20.75,20.75,0,0,0,2.9,10.6L4,45.26a.55.55,0,0,0,.13.57.56.56,0,0,0,.4.17.51.51,0,0,0,.17,0l11.16-3.54A21.15,21.15,0,0,0,47,24,21.06,21.06,0,0,0,25.88,3Zm0,37.55a16.67,16.67,0,0,1-9.2-2.74.59.59,0,0,0-.31-.09l-.17,0-5.59,1.78,1.81-5.32a.58.58,0,0,0-.08-.51A16.34,16.34,0,0,1,9.15,24,16.73,16.73,0,1,1,25.88,40.55Z" transform="translate(-4 -3)"/>
  </g>
</svg>
