<svg id="Layer_1" data-name="Layer 1" xmlns="http://www.w3.org/2000/svg" viewBox="0 0 42.85 43">
  <defs>
    <style>
      .cls-1 {
        fill: #fff;
      }
    </style>
  </defs>
  <title>ico_leads</title>
  <g>
    <path class="cls-1" d="M42.66,38.51a4.85,4.85,0,1,0-7.8,0,6.83,6.83,0,0,0-2.81,2.29,6.84,6.84,0,0,0-2.84-2.29,4.86,4.86,0,1,0-7.79,0,6.89,6.89,0,0,0-2.81,2.28,6.87,6.87,0,0,0-2.83-2.28A4.85,4.85,0,1,0,7,35.62a4.78,4.78,0,0,0,1,2.89A6.82,6.82,0,0,0,3.9,44.74V46H46.75V44.74A6.8,6.8,0,0,0,42.66,38.51ZM11.88,33.29a2.33,2.33,0,1,1-2.33,2.33A2.34,2.34,0,0,1,11.88,33.29ZM6.62,43.47a4.28,4.28,0,0,1,4.08-3h2.38a4.28,4.28,0,0,1,4.08,3Zm18.7-10.18A2.33,2.33,0,1,1,23,35.62,2.33,2.33,0,0,1,25.32,33.29ZM20.06,43.47a4.28,4.28,0,0,1,4.07-3h2.39a4.28,4.28,0,0,1,4.07,3Zm18.7-10.18a2.33,2.33,0,1,1-2.33,2.33A2.34,2.34,0,0,1,38.76,33.29ZM33.5,43.47a4.28,4.28,0,0,1,4.07-3H40a4.29,4.29,0,0,1,4.08,3Z" transform="translate(-3.9 -3)"/>
    <path class="cls-1" d="M33.94,17.54l-5.36-1.69-3.26-4.57-3.27,4.57-5.36,1.69L20,22.06,20,27.68l5.34-1.78,5.33,1.78,0-5.62Zm-5.85,6.63-2.77-.93-2.78.93,0-2.93-1.74-2.35L23.61,18l1.71-2.38L27,18l2.79.89-1.74,2.35Z" transform="translate(-3.9 -3)"/>
    <rect class="cls-1" x="20.17" width="2.53" height="3.62"/>
    <rect class="cls-1" x="35.41" y="15.2" width="3.62" height="2.53"/>
    <rect class="cls-1" x="3.83" y="15.2" width="3.62" height="2.53"/>
    <rect class="cls-1" x="35.16" y="7.7" width="4.21" height="2.53" transform="translate(0.67 25.98) rotate(-45)"/>
    <rect class="cls-1" x="12.12" y="6.84" width="2.53" height="4.21" transform="translate(-6.31 9.09) rotate(-45)"/>
  </g>
</svg>
