<svg id="Layer_1" data-name="Layer 1" xmlns="http://www.w3.org/2000/svg" viewBox="0 0 41.92 38.48">
  <defs>
    <style>
      .cls-1 {
        fill: #fff;
      }
    </style>
  </defs>
  <title>ico_activities</title>
  <g>
    <path class="cls-1" d="M37.09,5.52H12.83A8.84,8.84,0,0,0,4,14.35V35.17A8.84,8.84,0,0,0,12.83,44H37.09a8.84,8.84,0,0,0,8.83-8.83V14.35A8.84,8.84,0,0,0,37.09,5.52ZM43,35.17A5.87,5.87,0,0,1,37.09,41H12.83A5.87,5.87,0,0,1,7,35.17V14.35a5.87,5.87,0,0,1,5.86-5.86H37.09A5.87,5.87,0,0,1,43,14.35Z" transform="translate(-4 -5.52)"/>
    <path class="cls-1" d="M34.83,25.91H15.09a5.5,5.5,0,0,0,0,11H34.83a5.5,5.5,0,0,0,0-11Zm0,8H15.09a2.53,2.53,0,0,1,0-5.05H34.83a2.53,2.53,0,0,1,0,5.05Z" transform="translate(-4 -5.52)"/>
    <path class="cls-1" d="M34.83,12.63H15.09a5.49,5.49,0,0,0,0,11H34.83a5.49,5.49,0,1,0,0-11Zm0,8H15.09a2.53,2.53,0,0,1,0-5.06H34.83a2.53,2.53,0,0,1,0,5.06Z" transform="translate(-4 -5.52)"/>
  </g>
</svg>
