<svg id="Layer_1" data-name="Layer 1" xmlns="http://www.w3.org/2000/svg" viewBox="0 0 18 18">
  <defs>
    <style>
      .cls-1 {
        fill: #fff;
      }
    </style>
  </defs>
  <title>ico_feedback_white</title>
  <g>
    <path class="cls-1" d="M15.94,7.87a2.19,2.19,0,0,0-1.49-.21l-1.08.24.18-1.83a1.59,1.59,0,0,0-1.07-1.66,1.6,1.6,0,0,0-2,1l-.6,1.95a1.66,1.66,0,0,1-1,1l-.38.13H6a.52.52,0,0,0-.52.53v5.64a.51.51,0,0,0,.15.37.52.52,0,0,0,.37.16H8.11l5.26.66.48,0a3.74,3.74,0,0,0,2.24-.74l.11-.09a2.17,2.17,0,0,0,.87-1.73V9.77A2.16,2.16,0,0,0,15.94,7.87ZM6.52,9.63H8l-.35,4.58H6.52V9.63ZM16,13.4a1.11,1.11,0,0,1-.44.89l-.11.08a2.75,2.75,0,0,1-2,.52l-4.79-.61.23-3,.14-1.78.14-.05a2.72,2.72,0,0,0,1.64-1.72l.6-2a.52.52,0,0,1,.27-.31.49.49,0,0,1,.41,0A.54.54,0,0,1,12.5,6l-.26,2.55a.54.54,0,0,0,.18.45.51.51,0,0,0,.46.12l1.8-.39a1.06,1.06,0,0,1,.76.11,1.1,1.1,0,0,1,.57,1Z" transform="translate(-2 -2)"/>
    <path class="cls-1" d="M17.36,4.64A9,9,0,1,0,4.64,17.36,9,9,0,1,0,17.36,4.64Zm-.74,12A7.94,7.94,0,1,1,19,11,7.91,7.91,0,0,1,16.62,16.62Z" transform="translate(-2 -2)"/>
  </g>
</svg>
