<svg id="Layer_1" data-name="Layer 1" xmlns="http://www.w3.org/2000/svg" xmlns:xlink="http://www.w3.org/1999/xlink" viewBox="0 0 1281 366.8">
  <defs>
    <style>
      .cls-1 {
        fill: #aa0535;
      }

      .cls-2 {
        fill: #fefefe;
      }

      .cls-3 {
        fill: #b32b50;
      }

      .cls-4 {
        fill: #b33653;
      }

      .cls-5 {
        fill: #cc8895;
      }

      .cls-6 {
        fill: #e4c3c9;
      }

      .cls-7 {
        fill: url(#linear-gradient);
      }

      .cls-8 {
        fill: #fff;
      }
    </style>
    <linearGradient id="linear-gradient" x1="999.16" y1="339.94" x2="999.16" y2="33.95" gradientUnits="userSpaceOnUse">
      <stop offset="0" stop-color="#065193"/>
      <stop offset="0.52" stop-color="#0c5eb2"/>
      <stop offset="1" stop-color="#07559c"/>
    </linearGradient>
  </defs>
  <title>Logo_anoud_CRM</title>
  <path class="cls-1" d="M0,335.6V34.6C2.55,30.19,7.22,28.84,11.41,27A315.57,315.57,0,0,1,99.62,2.64c23-3,46.21-3.16,69.29-1.93,38.75,2.07,76.88,8.91,114.72,17.45C325,27.49,366.05,38.31,407.46,47.54c30.2,6.73,60.54,12.58,91.32,16.08,24.66,2.81,49.38,4.63,74.17,3.69,42.16-1.6,83.25-9,122.83-24.07,6.54-2.49,13-5.21,19.47-7.79,2.23-.89,4.41-1.65,6.54.21,2.61,5.12,1.08,10.54,1.15,15.84a110.1,110.1,0,0,1,0,16,106.15,106.15,0,0,1,0,15.95,92.28,92.28,0,0,1,0,14.87,51,51,0,0,1,0,9.16,49.41,49.41,0,0,1,0,8.25,93.32,93.32,0,0,1,0,14.86,98.85,98.85,0,0,1,0,15.1,258.37,258.37,0,0,1,0,26c.44,18.24.48,36.48,0,54.71a221.77,221.77,0,0,1,0,24,132.89,132.89,0,0,1,0,18.07,120.85,120.85,0,0,1,0,17,120.43,120.43,0,0,1,0,17,109.68,109.68,0,0,1,0,16c.15,5.6.92,11.22-.51,16.76-1,3.35-4,4.28-6.82,5.28-29.19,10.57-59.07,18.39-89.93,22.24-22,2.75-44,4.46-66.18,3.85a641.19,641.19,0,0,1-68-5.51c-43.94-5.9-87-16-130-26.31-35-8.39-69.84-17.06-105.21-23.54-20.94-3.83-42-6.95-63.22-8.73-15.77-1.32-31.54-2.26-47.34-1.75-37.35,1.22-73.75,7.57-108.8,20.87-10.28,3.91-20.31,8.37-30.23,13.11C4.51,335.82,2.4,337,0,335.6Z"/>
  <path class="cls-2" d="M227.87,158.63c3.42,32.21,1.66,64.54,2.23,96.81.07,4.22-1.07,5.44-5.21,5.14a105.24,105.24,0,0,0-15.48,0c-4.25.31-5.56-.75-5.54-5.33.23-36.31.13-72.62.13-108.93,0-11,.13-22-.08-33-.07-3.34,1-4.22,4.18-4.1,6.49.24,13,.2,19.49,0,2.73-.08,4.1.74,5.12,3.38,12.27,31.92,25.57,63.46,36.54,95.89,1.32.81,1.13,2.27,1.49,3.43a.49.49,0,0,0,0-.12,3.91,3.91,0,0,1-.2-1c-.47-1.84.44-3.75-.35-5.55-2.57-30.23-1.64-60.53-1.93-90.8,0-4.09.95-5.56,5.18-5.3,5.81.36,11.66.21,17.48,0,2.86-.09,4.09.49,4.08,3.78q-.16,71.92,0,143.86c0,2.86-.86,3.73-3.68,3.65-6.32-.18-12.67-.32-19,0-3.54.2-4.87-1.22-6-4.26-12.5-32.55-25.6-64.88-37.4-97.7C228.53,158,228.2,158.08,227.87,158.63Z"/>
  <path class="cls-2" d="M556.31,184.81c0-23.49.07-47-.07-70.47,0-3.68.61-5.23,4.83-5.15,16.65.36,33.33-.23,49.95.54,18.77.87,30.27,12.53,30.61,31.38.53,28.81.59,57.64,0,86.44-.46,21.46-11.26,31.94-32.78,32.71-16.31.58-32.65.06-49,.31-4.09.06-3.55-2.3-3.55-4.8Q556.33,220.3,556.31,184.81Z"/>
  <path class="cls-2" d="M325,184.58c0-13.15,0-26.31,0-39.47.08-21.83,12.6-35.28,34.47-37.59,9.24-1,18.27-.6,27.13,2.13,14.33,4.4,24,16.37,24.21,31.38q.54,43.71,0,87.43c-.17,15.22-10.27,27.66-25.07,31.8a65,65,0,0,1-34.53.26c-15.93-4.22-25.76-16.48-26.11-33-.31-14.32-.07-28.65-.07-43Z"/>
  <path class="cls-2" d="M525.3,171v51.49c0,23.81-10.93,36.53-34.49,39.61A63.21,63.21,0,0,1,468,261.07c-17.88-4.25-27.88-16.88-27.94-35.67-.1-30.33,0-60.66,0-91,0-7.17.11-14.34-.06-21.5-.06-2.75.66-3.78,3.57-3.68,6.16.21,12.34.3,18.49,0,3.92-.2,5,1,5,5-.16,36-.08,72-.12,108,0,3.73.1,7.48,2.46,10.49,5.08,6.48,12.23,6,19.22,4.83,6-1,8.95-4.94,9.75-11.64a60.2,60.2,0,0,0,.4-7c0-34.83.09-69.65-.09-104.48,0-4.22,1.11-5.44,5.25-5.15a116.74,116.74,0,0,0,16,0c4.2-.28,5.67.69,5.6,5.33C525.11,133.37,525.3,152.2,525.3,171Z"/>
  <path class="cls-2" d="M132.05,109.3c5,0,10,.11,15,0,2.48-.08,3.44.81,3.95,3.26q14.73,72,29.68,144c.6,2.92.29,4.19-3.18,4-6.15-.28-12.33-.28-18.48,0-3.08.14-3.95-1.12-4.43-3.81-1.74-9.65-3.76-19.25-5.46-28.9-.64-3.65-1.52-5.72-6.12-5.42-8.29.54-16.64.25-25,.1-2.66,0-3.71.72-4.18,3.49-1.75,10.32-4,20.56-5.68,30.89-.5,3.14-1.77,3.69-4.52,3.61-6-.16-12-.22-18,0-3.21.13-4-.72-3.34-3.92q10.23-48.54,20.27-97.1c3.15-15.13,6.49-30.22,9.32-45.41.76-4.05,2.33-5.15,6.16-4.89C122.71,109.54,127.39,109.3,132.05,109.3Z"/>
  <path class="cls-3" d="M270.15,205.31c1.08,1.94.87,4.09,1,6.19.46,1,0,1.13-.89.89-.34-1.3-.67-2.59-1-3.88Z"/>
  <path class="cls-4" d="M227.87,158.63a3.24,3.24,0,0,1-.23-4l1.21,4-.49,0Z"/>
  <path class="cls-5" d="M270.26,212.39l.89-.89a5.38,5.38,0,0,1,.66,4.26C270.55,214.81,270.62,213.51,270.26,212.39Z"/>
  <path class="cls-1" d="M583.3,184c0-16,.08-32-.08-48,0-3.32.56-4.83,4.29-4.57,4.81.34,9.66,0,14.49.11,8.69.23,12.94,4.39,13,13q.12,39,0,78c0,10.16-4.26,14.26-14.29,14.33-4.33,0-8.68-.21-13,.07-3.51.22-4.51-1-4.47-4.47C583.39,216.36,583.3,200.2,583.3,184Z"/>
  <path class="cls-1" d="M351.89,184.58c0-12.66,0-25.31,0-38,0-10.34,5.15-15.12,16.07-15.13s16.12,4.77,16.13,15.06q0,38.22,0,76.44c0,10.31-5.18,15.15-16.05,15.18s-16.11-4.88-16.15-15.11C351.85,210.23,351.89,197.41,351.89,184.58Z"/>
  <path class="cls-1" d="M131.91,137.75c3.54,18.92,7,37.86,10.73,56.74.83,4.16.26,5.61-4.23,5.3-5.3-.36-10.64-.19-16,0-2.8.08-3.63-.35-3-3.57,3.76-19.39,7.22-38.83,10.77-58.26C130.68,136.93,131.27,137.05,131.91,137.75Z"/>
  <path class="cls-6" d="M131.91,137.75l-1.7.17c-.18-1-.24-2.21.89-2.26C132.53,135.59,132,136.9,131.91,137.75Z"/>
  <g>
    <rect class="cls-7" x="717.32" y="33.95" width="563.68" height="305.99"/>
    <g>
      <path class="cls-8" d="M799.5,184.71c0-56.4,28.84-86.43,73.65-86.43a107.9,107.9,0,0,1,33.85,5v27.42a73.3,73.3,0,0,0-31.23-6.79c-27.17,0-44.33,20.37-44.33,60.84,0,43.35,19.55,65,44.33,65A73.3,73.3,0,0,0,907,242.94v26.9c-8.82,3.39-19.79,5.48-33.85,5.48C831.68,275.32,799.5,241.9,799.5,184.71Z"/>
      <path class="cls-8" d="M1030,272.71l-35.75-64.24H975.88v64.24h-31V100.89h48.63c40.52,0,63.63,20.11,63.63,52.48,0,24.81-12.15,42.57-34.56,50.66l41.48,68.68Zm-54.1-90.35h15.73c22.88,0,32.89-10.45,32.89-29,0-17.23-10.72-27.15-32.89-27.15H975.88Z"/>
      <path class="cls-8" d="M1200.4,100.89V272.71h-27.17V160.16l-22.88,67.11h-16.92l-23.12-70V272.71h-26.22V100.89h30.51l27.65,83.3,26.93-83.3Z"/>
    </g>
  </g>
</svg>
