<svg id="Layer_1" data-name="Layer 1" xmlns="http://www.w3.org/2000/svg" width="13.7" height="21" viewBox="0 0 13.7 21">
  <defs>
    <style>
      .cls-1 {
        fill: #4198c1;
      }
    </style>
  </defs>
  <title>passard_bg</title>
  <g>
    <path class="cls-1" d="M17.8,12.7V8.2A4,4,0,0,0,13.9,4H12.4a4.1,4.1,0,0,0-4,4.2v4.5a7.4,7.4,0,0,0-2.1,5.2A6.9,6.9,0,0,0,13.1,25,7,7,0,0,0,20,17.9,7.1,7.1,0,0,0,17.8,12.7Zm-8.1-1V8.2a2.8,2.8,0,0,1,2.7-2.9h1.5a2.8,2.8,0,0,1,2.6,2.9v3.5l-.5-.3h-.5a5.9,5.9,0,0,0-1.9-.5h-.9a6.5,6.5,0,0,0-2,.5h-.4Zm3.4,12a5.7,5.7,0,0,1-5.5-5.8,5.7,5.7,0,0,1,2.8-5h.2a.1.1,0,0,1,.1-.1h.1l1.8-.6h1a6,6,0,0,1,1.9.6h.3a5.8,5.8,0,0,1,2.9,5A5.7,5.7,0,0,1,13.1,23.7Z" transform="translate(-6.3 -4)"/>
    <path class="cls-1" d="M15.1,16.8a2,2,0,0,0-2-1.9,2,2,0,0,0-1.9,1.9,1.7,1.7,0,0,0,.6,1.4l-.5,2.1v.2a1.2,1.2,0,0,0,1.3,1h1c.8,0,1.3-.5,1.3-1v-.2l-.4-2.1A2,2,0,0,0,15.1,16.8Zm-2.4,3.4.4-1.9.4,1.9Zm.7-2.8-.3.3-.3-.3a.6.6,0,0,1-.3-.6.6.6,0,0,1,.6-.6.6.6,0,0,1,.3,1.2Z" transform="translate(-6.3 -4)"/>
  </g>
</svg>
