<svg id="Layer_1" data-name="Layer 1" xmlns="http://www.w3.org/2000/svg" width="16.5" height="15.8" viewBox="0 0 16.5 15.8">
  <defs>
    <style>
      .cls-1 {
        fill: #fff;
        stroke: #fff;
        stroke-miterlimit: 10;
        stroke-width: 0.5px;
      }
    </style>
  </defs>
  <title>signin</title>
  <g>
    <path class="cls-1" d="M12.6,10.5H2.5a.5.5,0,0,1,0-1H12.6a.5.5,0,1,1,0,1Z" transform="translate(-1.8 -2.1)"/>
    <path class="cls-1" d="M9.8,13.3H9.5a.6.6,0,0,1,0-.8L11.9,10,9.5,7.6a.6.6,0,0,1,0-.8.5.5,0,0,1,.7,0L13,9.6a.6.6,0,0,1,0,.8l-2.8,2.8Z" transform="translate(-1.8 -2.1)"/>
    <path class="cls-1" d="M10.3,17.7a7.8,7.8,0,0,1-7.1-4.9.6.6,0,0,1,.3-.7.5.5,0,0,1,.7.3,6.5,6.5,0,0,0,6.1,4.2A6.7,6.7,0,0,0,17,10a6.7,6.7,0,0,0-6.7-6.6A6.5,6.5,0,0,0,4.2,7.6a.5.5,0,0,1-.7.3.6.6,0,0,1-.3-.7,7.8,7.8,0,0,1,7.1-4.9,7.7,7.7,0,0,1,0,15.4Z" transform="translate(-1.8 -2.1)"/>
  </g>
</svg>
