<svg id="Layer_1" data-name="Layer 1" xmlns="http://www.w3.org/2000/svg" width="18" height="18" viewBox="0 0 18 18">
  <defs>
    <style>
      .cls-1 {
        fill: #4198c1;
      }
    </style>
  </defs>
  <title>username</title>
  <path class="cls-1" d="M19.4,15.6a9.6,9.6,0,0,0-3.5-2.1,5.1,5.1,0,0,0,2.3-4.3,5.2,5.2,0,0,0-10.4,0,5.1,5.1,0,0,0,2.3,4.3,9.6,9.6,0,0,0-3.5,2.1A9,9,0,0,0,4,22H5.4a7.6,7.6,0,0,1,15.2,0H22A9,9,0,0,0,19.4,15.6ZM13,13a3.8,3.8,0,1,1,3.8-3.8A3.8,3.8,0,0,1,13,13Z" transform="translate(-4 -4)"/>
</svg>
