<?xml version="1.0" encoding="utf-8"?>
<!-- Generator: Adobe Illustrator 22.1.0, SVG Export Plug-In . SVG Version: 6.00 Build 0)  -->
<svg version="1.1" xmlns="http://www.w3.org/2000/svg" xmlns:xlink="http://www.w3.org/1999/xlink" x="0px" y="0px"
	 viewBox="0 0 50 50" style="enable-background:new 0 0 50 50;" xml:space="preserve">
<style type="text/css">
	.st0{display:none;}
	.st1{display:inline;}
	.st2{fill:#92A58B;}
	.st3{fill:#57C1EF;}
</style>
<g id="Layer_1" class="st0">
	<g class="st1">
		<path class="st2" d="M5.1,29c-0.2-0.2-0.3-0.5-0.3-0.7c0-0.2,0.1-0.5,0.3-0.7l1.4-1.4c0.4-0.4,1-0.4,1.4,0L8,26.3l6.5,5.9
			c0.2,0.2,0.5,0.2,0.7,0l15.4-19.9h0.1l0,0c0.4-0.4,1-0.4,1.4,0l1.4,1.4c0.4,0.4,0.4,1,0,1.4l0,0l-18,22.6
			c-0.2,0.2-0.4,0.3-0.7,0.3s-0.5-0.1-0.7-0.3l-8.8-8.4C5.2,29.3,5,29,5.1,29z"/>
		<path class="st2" d="M21.6,33c-0.2-0.2-0.3-0.5-0.3-0.7s0.1-0.5,0.3-0.7l1.4-1.4c0.4-0.4,1-0.4,1.4,0l0.1,0.1l1.5,1.9
			c0.2,0.2,0.5,0.2,0.7,0L42,12.3h0.1l0,0c0.4-0.4,1-0.4,1.4,0l1.4,1.4c0.4,0.4,0.4,1,0,1.4l0,0l-18,22.6c-0.2,0.2-0.4,0.3-0.7,0.3
			c-0.3,0-0.5-0.1-0.7-0.3l-3.8-4.4C21.8,33.3,21.5,33,21.6,33z"/>
	</g>
</g>
<g id="Layer_2" class="st0">
	<g class="st1">
		<path class="st3" d="M5.1,29c-0.2-0.2-0.3-0.5-0.3-0.7c0-0.2,0.1-0.5,0.3-0.7l1.4-1.4c0.4-0.4,1-0.4,1.4,0L8,26.3l6.5,5.9
			c0.2,0.2,0.5,0.2,0.7,0l15.4-19.9h0.1l0,0c0.4-0.4,1-0.4,1.4,0l1.4,1.4c0.4,0.4,0.4,1,0,1.4l0,0l-18,22.6
			c-0.2,0.2-0.4,0.3-0.7,0.3s-0.5-0.1-0.7-0.3l-8.8-8.4C5.2,29.3,5,29,5.1,29z"/>
		<path class="st3" d="M21.6,33c-0.2-0.2-0.3-0.5-0.3-0.7s0.1-0.5,0.3-0.7l1.4-1.4c0.4-0.4,1-0.4,1.4,0l0.1,0.1l1.5,1.9
			c0.2,0.2,0.5,0.2,0.7,0L42,12.3h0.1l0,0c0.4-0.4,1-0.4,1.4,0l1.4,1.4c0.4,0.4,0.4,1,0,1.4l0,0l-18,22.6c-0.2,0.2-0.4,0.3-0.7,0.3
			c-0.3,0-0.5-0.1-0.7-0.3l-3.8-4.4C21.8,33.3,21.5,33,21.6,33z"/>
	</g>
</g>
<g id="Layer_3">
	<path class="st2" d="M10.1,29c-0.2-0.2-0.3-0.5-0.3-0.7c0-0.2,0.1-0.5,0.3-0.7l1.4-1.4c0.4-0.4,1-0.4,1.4,0l0.1,0.1l6.5,5.9
		c0.2,0.2,0.5,0.2,0.7,0l15.4-19.9h0.1l0,0c0.4-0.4,1-0.4,1.4,0l1.4,1.4c0.4,0.4,0.4,1,0,1.4l0,0l-18,22.6C20.3,37.9,20,38,19.8,38
		c-0.3,0-0.5-0.1-0.7-0.3l-8.8-8.4C10.3,29.3,10.1,29,10.1,29z"/>
</g>
</svg>
